# xmcd CD database file
#
# Track frame offsets:
#	187
#	18662
#	37142
#	55950
#
# Disc length: 994 seconds
#
# Revision: 0
# Processed by: cddbd v1.5.1PL0 Copyright (c) Steve Scherf et al.
# Submitted via: CDex 1.51
#
DISCID=3303e004
DTITLE=半田浩二 - ヨコハマ・コンチェルト
DYEAR=1990
DGENRE=Blues
TTITLE0=ヨコハマ・コンチェルト
TTITLE1=出逢いふたたび
TTITLE2=ヨコハマ・コンチェルト(カラオケ)
TTITLE3=出逢いふたたび(カラオケ)
EXTD=YEAR: 1990
EXTT0=
EXTT1=
EXTT2=
EXTT3=
PLAYORDER=
